<?xml version="1.0" encoding="UTF-8"?>
<svg xmlns="http://www.w3.org/2000/svg"
    xmlns:xlink="http://www.w3.org/1999/xlink" width="19pt" height="8pt" viewBox="0 0 19 8" version="1.1">
    <g id="surface1">
        <path style=" stroke:none;fill-rule:nonzero;fill:rgb(89.803922%,19.607843%,21.960784%);fill-opacity:1;" d="M 2.453125 1.730469 C 1.121094 1.730469 0.0078125 2.320312 0.0078125 4.101562 C 0.0078125 5.511719 0.753906 6.402344 2.488281 6.402344 C 4.53125 6.402344 4.664062 5 4.664062 5 L 3.671875 5 C 3.671875 5 3.460938 5.753906 2.429688 5.753906 C 1.589844 5.753906 0.984375 5.164062 0.984375 4.332031 L 4.765625 4.332031 L 4.765625 3.816406 C 4.765625 2.996094 4.265625 1.730469 2.453125 1.730469 Z M 2.421875 2.394531 C 3.21875 2.394531 3.765625 2.90625 3.765625 3.671875 L 1.007812 3.671875 C 1.007812 2.859375 1.71875 2.394531 2.421875 2.394531 Z M 2.421875 2.394531 "/>
        <path style=" stroke:none;fill-rule:nonzero;fill:rgb(0%,39.215686%,82.352941%);fill-opacity:1;" d="M 4.765625 0.0078125 L 4.765625 5.507812 C 4.765625 5.816406 4.742188 6.257812 4.742188 6.257812 L 5.6875 6.257812 C 5.6875 6.257812 5.722656 5.941406 5.722656 5.65625 C 5.722656 5.65625 6.1875 6.414062 7.457031 6.414062 C 8.789062 6.414062 9.695312 5.449219 9.695312 4.066406 C 9.695312 2.777344 8.863281 1.746094 7.457031 1.746094 C 6.140625 1.746094 5.730469 2.484375 5.730469 2.484375 L 5.730469 0.0078125 Z M 7.214844 2.425781 C 8.121094 2.425781 8.695312 3.125 8.695312 4.066406 C 8.695312 5.074219 8.03125 5.734375 7.21875 5.734375 C 6.253906 5.734375 5.730469 4.945312 5.730469 4.074219 C 5.730469 3.261719 6.199219 2.425781 7.214844 2.425781 Z M 7.214844 2.425781 "/>
        <path style=" stroke:none;fill-rule:nonzero;fill:rgb(96.078431%,68.627451%,0.784314%);fill-opacity:1;" d="M 12.042969 1.730469 C 10.03125 1.730469 9.902344 2.878906 9.902344 3.058594 L 10.902344 3.058594 C 10.902344 3.058594 10.957031 2.390625 11.972656 2.390625 C 12.632812 2.390625 13.144531 2.707031 13.144531 3.3125 L 13.144531 3.527344 L 11.972656 3.527344 C 10.417969 3.527344 9.59375 4 9.59375 4.964844 C 9.59375 5.910156 10.355469 6.425781 11.382812 6.425781 C 12.78125 6.425781 13.234375 5.621094 13.234375 5.621094 C 13.234375 5.941406 13.257812 6.257812 13.257812 6.257812 L 14.144531 6.257812 C 14.144531 6.257812 14.113281 5.867188 14.113281 5.613281 L 14.113281 3.449219 C 14.113281 2.027344 13.011719 1.730469 12.042969 1.730469 Z M 13.144531 4.171875 L 13.144531 4.460938 C 13.144531 4.835938 12.925781 5.769531 11.617188 5.769531 C 10.902344 5.769531 10.59375 5.394531 10.59375 4.964844 C 10.59375 4.179688 11.628906 4.171875 13.144531 4.171875 Z M 13.144531 4.171875 "/>
        <path style=" stroke:none;fill-rule:nonzero;fill:rgb(52.54902%,72.156863%,9.019608%);fill-opacity:1;" d="M 13.574219 1.910156 L 14.699219 1.910156 L 16.3125 5.28125 L 17.925781 1.910156 L 18.945312 1.910156 L 16.007812 7.910156 L 14.941406 7.910156 L 15.785156 6.238281 Z M 13.574219 1.910156 "/>
    </g>
</svg>
